<svg width="90" height="70" viewBox="0 0 90 70" fill="none" xmlns="http://www.w3.org/2000/svg">
<path d="M53.9952 67.4482V67.4435V52.498C53.9952 51.4372 53.5738 50.4197 52.8238 49.6695C52.0737 48.9193 51.0563 48.4978 49.9954 48.4978H39.9961C38.9352 48.4978 37.9178 48.9193 37.1677 49.6695C36.4177 50.4197 35.9963 51.4372 35.9963 52.498V67.4544C35.9963 67.7189 35.8916 67.9726 35.7052 68.1601C35.5187 68.3475 35.2657 68.4534 35.0015 68.4547L17.501 68.5C17.5007 68.5 17.5005 68.5 17.5002 68.5C17.2354 68.4998 16.9815 68.3945 16.7941 68.2071C16.6066 68.0196 16.5012 67.7651 16.5012 67.4997V42.5968L44.7522 19.3245C44.8234 19.2685 44.9114 19.238 45.002 19.238C45.0927 19.238 45.1807 19.2685 45.252 19.3246C45.2533 19.3256 45.2545 19.3266 45.2558 19.3276L73.4966 42.5798V67.4997C73.4966 67.7651 73.3912 68.0196 73.2036 68.2071C73.0164 68.3944 72.7626 68.4997 72.4979 68.5C72.4975 68.5 72.4971 68.5 72.4968 68.5L54.9991 68.4516H54.9949C54.8635 68.4516 54.7332 68.4256 54.6117 68.3752C54.4902 68.3247 54.3799 68.2508 54.287 68.1576C54.1941 68.0644 54.1205 67.9537 54.0704 67.832C54.0203 67.7103 53.9948 67.5798 53.9952 67.4482ZM88.3538 35.4456L88.3615 35.4519C88.3999 35.4831 88.4317 35.5216 88.4551 35.5651L89.7758 34.8538L88.4551 35.5651C88.4786 35.6087 88.4932 35.6564 88.4981 35.7056C88.5031 35.7549 88.4982 35.8046 88.4839 35.8519C88.4696 35.8992 88.4461 35.9433 88.4146 35.9815L84.4332 40.8226C84.4331 40.8227 84.433 40.8229 84.4328 40.823C84.4015 40.8608 84.3631 40.8921 84.3198 40.915C84.2763 40.9381 84.2287 40.9523 84.1797 40.957C84.1307 40.9616 84.0813 40.9566 84.0342 40.9421C83.9872 40.9276 83.9434 40.904 83.9055 40.8726L83.9028 40.8704L47.151 10.5951L47.1448 10.5901L47.1387 10.5851C46.5334 10.0972 45.7794 9.83106 45.002 9.83106C44.2245 9.83106 43.4706 10.0972 42.8653 10.5851L42.8591 10.5901L42.853 10.5951L6.10273 40.8704L6.10117 40.8717C6.06316 40.9031 6.01934 40.9267 5.97224 40.9411C5.92513 40.9555 5.87565 40.9605 5.82662 40.9558C5.7776 40.9511 5.72997 40.9367 5.68649 40.9135C5.64297 40.8904 5.60445 40.8588 5.57313 40.8207L5.57302 40.8206L1.58896 35.9763L1.58615 35.9729C1.55473 35.9349 1.53109 35.8911 1.51659 35.844C1.5021 35.7969 1.49702 35.7473 1.50167 35.6982C1.50632 35.6491 1.5206 35.6014 1.54368 35.5578C1.56666 35.5144 1.59792 35.476 1.63567 35.4447C1.63583 35.4446 1.63599 35.4444 1.63614 35.4443L41.1822 2.86929C41.1823 2.86917 41.1825 2.86904 41.1826 2.86891C42.2564 1.98529 43.6037 1.50221 44.9942 1.50221C46.3848 1.50221 47.7323 1.98543 48.8062 2.86929L48.8063 2.86938L62.7943 14.38L65.2474 16.3987V13.2218V1.87521C65.2474 1.77561 65.287 1.68014 65.3573 1.6098L64.2966 0.549236L65.3573 1.60979C65.4276 1.53946 65.523 1.5 65.6223 1.5H74.3716C74.4709 1.5 74.5663 1.53946 74.6366 1.60979C74.7069 1.68014 74.7465 1.77561 74.7465 1.87521V23.5198V24.2272L75.2923 24.6772L88.3538 35.4456Z" stroke="#B1C1A4" stroke-width="3"/>
</svg>
