<svg width="91" height="70" viewBox="0 0 91 70" fill="none" xmlns="http://www.w3.org/2000/svg">
<path d="M25.8083 19.8934V33.9062C25.8083 40.2022 31.0621 45.2507 37.4333 45.2507C43.8046 45.2507 49.0583 40.2022 49.0583 33.9062V27.7493H68.9333C70.0151 27.7493 70.8083 28.5801 70.8083 29.5308V36.0938C70.8083 37.0445 70.0151 37.8754 68.9333 37.8754H67.8083H66.3083V39.3754V48.1261C66.3083 49.6784 65.0089 51.0015 63.3083 51.0015H61.0583H59.5583V52.5015C59.5583 56.4602 56.2339 59.7522 52.0583 59.7522H32.8489H32.4567L32.1147 59.9442L17.5762 68.1058C17.5759 68.106 17.5755 68.1062 17.5752 68.1064C16.1115 68.9242 14.2636 68.42 13.4541 67.0516L13.4529 67.0496L2.20292 48.0987L2.20029 48.0943C1.39552 46.7492 1.85531 45.0011 3.29052 44.1985L3.29278 44.1973L14.5428 37.8803L15.3084 37.4504V36.5724V30.1051C15.3084 27.5886 16.6729 25.22 18.9337 23.9102L18.9385 23.9074L25.8083 19.8934ZM78.3083 30.865V29.5308C78.3083 24.438 74.067 20.3739 68.9333 20.3739H43.0583H41.5583V21.8739V33.9062C41.5583 36.06 39.7527 37.8754 37.4333 37.8754C35.1139 37.8754 33.3083 36.06 33.3083 33.9062V16.6371C33.3083 15.6605 33.819 14.7402 34.6894 14.218L34.6957 14.2142L39.4009 11.36C39.4018 11.3594 39.4028 11.3589 39.4037 11.3583C40.6077 10.6359 41.9856 10.2478 43.3958 10.2478H57.7677H58.1599L58.5019 10.0558L73.0404 1.89417C73.0408 1.89397 73.0411 1.89376 73.0415 1.89356C74.5052 1.07577 76.3531 1.58004 77.1625 2.94843L77.1637 2.95043L88.4125 21.8993C89.2113 23.2496 88.7593 24.9896 87.3216 25.804C87.321 25.8043 87.3204 25.8047 87.3198 25.805L78.3083 30.865Z" stroke="#B1C1A4" stroke-width="3"/>
</svg>
